<mxfile host="app.diagrams.net" modified="2022-02-20T12:53:11.430Z" agent="5.0 (Windows)" etag="y0lrQiAROX2QvX8LbIS8" version="16.6.1" type="github">
  <diagram id="fMfgW3fGg6T0xfS4DChv" name="Page-1">
    <mxGraphModel dx="1422" dy="762" grid="1" gridSize="10" guides="1" tooltips="1" connect="1" arrows="1" fold="1" page="1" pageScale="1" pageWidth="827" pageHeight="1169" math="0" shadow="0">
      <root>
        <mxCell id="0" />
        <mxCell id="1" parent="0" />
      </root>
    </mxGraphModel>
  </diagram>
</mxfile>
